<svg xmlns="http://www.w3.org/2000/svg" viewBox="0 0 100 100">
  <rect width="100" height="100" rx="8" fill="#1C1917"/>
  <g transform="translate(7,3) scale(1.03)"><g transform="translate(-156.22373,-83.439168)"><path fill="#FAFAF9" d="m 156.77736,176.59695 -0.55363,-0.55363 v -45.7903 c 0,-31.058448 0.0881,-45.954963 0.27389,-46.302085 0.26789,-0.500555 0.83433,-0.511773 25.8399,-0.511773 h 25.56601 l 2.0075,1.638728 c 1.10412,0.901301 2.48935,2.06216 3.07828,2.579688 0.58894,0.517527 2.42532,2.072052 4.08084,3.4545 4.86056,4.058825 16.52717,14.097842 16.73859,14.403422 0.10691,0.15452 0.19621,5.66173 0.19843,12.23823 l 0.004,11.95727 -3.30777,0.0813 c -2.51336,0.0617 -3.30766,0.002 -3.30729,-0.24946 2.6e-4,-0.21552 0.41525,-0.33073 1.1911,-0.33073 h 1.19063 v -9.63946 c 0,-8.94328 -0.0334,-9.65099 -0.46302,-9.799 -0.25466,-0.0877 -4.24566,-3.876 -8.86889,-8.41835 l -8.40587,-8.258817 0.005,-1.368536 0.005,-1.368539 -2.5698,-2.13719 -2.56979,-2.137193 h -24.02083 -24.02083 v 44.020305 44.0203 l 24.93698,0.12109 c 13.71534,0.0666 24.99306,0.0749 25.06161,0.0184 0.45171,-0.37207 -1.11789,-0.60675 -3.96109,-0.59223 -1.81901,0.009 -3.45612,0.0107 -3.63802,0.003 -0.19895,-0.008 -0.33073,-0.38285 -0.33073,-0.93991 v -0.92604 h 4.23333 4.23334 v -1.05833 -1.05834 h 6.48229 6.48229 v 0.92605 0.92604 l 1.91823,-0.002 c 1.05502,-0.001 2.72676,-0.0782 3.71496,-0.17157 l 1.79674,-0.16967 -0.0769,-1.87897 -0.0769,-1.87898 -8.40052,-0.0699 -8.40052,-0.0699 v -0.92232 -0.92233 h 4.59713 c 2.52843,0 4.97555,-0.0757 5.43805,-0.16818 0.75316,-0.15063 0.83254,-0.25417 0.76068,-0.99219 l -0.0802,-0.824 -3.24114,-0.0743 -3.24115,-0.0743 -2.4e-4,-0.71946 -2.3e-4,-0.71946 5.87529,0.0763 c 5.82133,0.0756 7.7065,-0.21841 3.03405,-0.47314 -2.41326,-0.13157 -2.42704,-0.13628 -2.5103,-0.85989 l -0.0837,-0.72761 h 9.156 9.156 l -0.0764,2.31511 -0.0764,2.3151 h -3.70417 -3.70416 l -0.0719,5.09323 -0.0719,5.09323 h -4.35991 -4.35992 v 1.05833 1.05833 l -33.40364,0.004 c -18.372,0.002 -33.66053,0.0725 -33.9745,0.15676 -0.37804,0.10141 -0.75784,-0.0339 -1.12447,-0.40049 z m 72.6698,-18.2015 -5.4901,-0.09 v -0.78838 -0.78838 h 7.35205 7.35206 l 0.0605,0.79375 c 0.0542,0.71199 -0.0179,0.79375 -0.70054,0.79375 -0.41857,0 -1.28366,0.0381 -1.92244,0.0846 -0.63877,0.0465 -3.63195,0.0441 -6.65151,-0.005 z m -3.63802,-5.10629 v -1.05834 l -1.38906,-7e-5 -1.38906,-8e-5 v -0.90332 c 0,-0.49682 0.0595,-0.95672 0.13229,-1.02198 0.0728,-0.0653 2.54331,-0.19836 5.4901,-0.29577 l 5.35781,-0.1771 v 2.2575 2.25749 h -4.10104 -4.10104 z m -4.76259,-4.91862 9e-5,-0.81758 6.39285,-0.17461 c 3.51606,-0.096 8.21903,-0.17461 10.45104,-0.17461 h 4.05819 v 0.92007 0.92008 l -10.45113,0.0721 -10.45114,0.0721 z m -38.83841,0.10553 c -0.51327,-0.51327 -0.37172,-1.49165 0.27548,-1.90403 0.49408,-0.31482 2.80987,-0.38561 13.61852,-0.41631 9.14299,-0.026 13.18756,0.051 13.57484,0.25823 0.43398,0.23227 0.53433,0.50313 0.47054,1.27011 l -0.0811,0.97488 -13.76923,0.0685 c -10.48928,0.0522 -13.84541,-0.008 -14.08906,-0.25136 z m 44.9243,-3.99756 c -2.6e-4,-0.40298 0.19302,-0.46405 1.25639,-0.39687 l 1.25677,0.0794 0.0821,-0.99218 0.0821,-0.99219 h -2.00034 -2.00035 v -1.94752 -1.94752 l 1.38906,-0.16685 c 0.76399,-0.0918 2.60946,-0.16788 4.10105,-0.16915 l 2.71197,-0.002 v 2.77812 2.77813 h 1.38907 c 1.35454,0 1.38906,0.019 1.38906,0.76291 v 0.76292 l -4.82826,-0.0353 c -4.4599,-0.0326 -4.82829,-0.0717 -4.82865,-0.51159 z m -5.29205,-9.66876 v -0.75233 l 4.16719,-0.17283 c 2.29195,-0.0951 6.28055,-0.17323 8.86354,-0.17372 l 4.69635,-8.8e-4 v 0.92604 0.92605 h -8.86354 -8.86354 z m -48.10125,-5.65059 c -0.61659,-0.61659 -0.29281,-1.13947 2.10241,-3.39531 l 2.41991,-2.27908 -1.29543,-1.19475 c -0.71248,-0.65712 -1.80144,-1.64452 -2.41991,-2.19422 -0.61846,-0.54971 -1.12448,-1.20528 -1.12448,-1.45684 0,-0.57559 0.81767,-1.33313 1.43894,-1.33313 0.25917,0 1.54561,0.9525 2.85874,2.11666 1.31314,1.16417 2.46093,2.11585 2.55065,2.11485 0.0897,-0.001 1.20783,-0.9535 2.48468,-2.11666 1.27685,-1.16317 2.55677,-2.11485 2.84427,-2.11485 0.56073,0 1.58106,0.87044 1.58106,1.34881 0,0.25913 -0.70194,0.95038 -3.96875,3.90835 l -0.92604,0.8385 2.45224,2.30998 c 2.41598,2.27581 2.75191,2.82083 2.12505,3.44769 -0.77499,0.77498 -1.78836,0.35409 -4.22873,-1.75636 l -2.39805,-2.07386 -0.69505,0.64937 c -2.86052,2.67255 -3.97148,3.49835 -4.70637,3.49835 -0.4277,0 -0.92051,-0.14288 -1.09514,-0.3175 z m 28.83959,0 c -0.64434,-0.64434 -0.264,-1.28134 2.04842,-3.43077 l 2.36593,-2.19916 -2.36593,-2.2077 c -2.58158,-2.40893 -2.95109,-3.23126 -1.70673,-3.79823 0.89395,-0.40731 1.30846,-0.17706 3.85823,2.14322 1.53126,1.39342 2.25653,1.89293 2.4971,1.71979 0.18647,-0.13422 1.30462,-1.10723 2.48477,-2.16225 1.18015,-1.05503 2.36465,-1.91823 2.63221,-1.91823 0.57056,0 1.36225,0.79439 1.36225,1.36689 0,0.21956 -1.0418,1.33022 -2.31511,2.46816 -1.27331,1.13793 -2.33936,2.13954 -2.36901,2.22581 -0.0296,0.0863 0.94567,1.04981 2.16736,2.14122 2.28832,2.04428 2.81939,2.88842 2.24932,3.57531 -0.7354,0.8861 -1.75114,0.47359 -4.16158,-1.69007 l -2.32115,-2.08351 -2.31622,2.08351 c -2.35623,2.1195 -3.33556,2.54032 -4.10986,1.76601 z"/></g></g>
</svg>
